<?xml version="1.0" encoding="UTF-8" standalone="no"?>
<svg
   version="1.0"
   width="50"
   height="50"
   viewBox="0 0 37.5 37.5"
   preserveAspectRatio="xMidYMid meet"
   id="svg38"
   sodipodi:docname="logo.svg"
   inkscape:version="1.1.2 (0a00cf5339, 2022-02-04)"
   inkscape:export-filename="/home/tramm/Kood/ausadvalimised.ee/logo.png"
   inkscape:export-xdpi="2.4075158"
   inkscape:export-ydpi="2.4075158"
   xmlns:inkscape="http://www.inkscape.org/namespaces/inkscape"
   xmlns:sodipodi="http://sodipodi.sourceforge.net/DTD/sodipodi-0.dtd"
   xmlns="http://www.w3.org/2000/svg"
   xmlns:svg="http://www.w3.org/2000/svg"
   xmlns:rdf="http://www.w3.org/1999/02/22-rdf-syntax-ns#"
   xmlns:cc="http://creativecommons.org/ns#"
   xmlns:dc="http://purl.org/dc/elements/1.1/">
  <defs
     id="defs42" />
  <sodipodi:namedview
     pagecolor="#ffffff"
     bordercolor="#666666"
     borderopacity="1"
     objecttolerance="10"
     gridtolerance="10"
     guidetolerance="10"
     inkscape:pageopacity="0"
     inkscape:pageshadow="2"
     inkscape:window-width="1920"
     inkscape:window-height="1009"
     id="namedview40"
     showgrid="false"
     fit-margin-top="6"
     fit-margin-left="1"
     fit-margin-right="1"
     fit-margin-bottom="4"
     inkscape:zoom="8"
     inkscape:cx="22.125"
     inkscape:cy="29.4375"
     inkscape:window-x="0"
     inkscape:window-y="0"
     inkscape:window-maximized="1"
     inkscape:current-layer="g36"
     units="px"
     inkscape:pagecheckerboard="0"
     inkscape:document-units="pt"
     scale-x="1"
     lock-margins="false" />
  <metadata
     id="metadata2">
Created by potrace 1.15, written by Peter Selinger 2001-2017
<rdf:RDF>
  <cc:Work
     rdf:about="">
    <dc:format>image/svg+xml</dc:format>
    <dc:type
       rdf:resource="http://purl.org/dc/dcmitype/StillImage" />
  </cc:Work>
</rdf:RDF>
</metadata>
  <g
     transform="matrix(0.1,0,0,-0.1,-381.53348,1100.9897)"
     id="g36"
     style="fill:#000000;stroke:none">
    <path
       inkscape:connector-curvature="0"
       d="m 3859.8745,10821.684 c 0,0 43.4354,-59.888 50.9863,-83.342 l 44.9461,-0.288 c 22.9215,52.031 101.1626,169.758 164.2761,208.925 13.7009,14.424 -16.1934,23.896 -41.8571,15.991 -38.679,-11.915 -120.5015,-124.02 -136.4188,-151.371 -19.06,-3.049 -35.033,35.061 -35.033,35.061 z"
       style="fill:#90ee90;fill-opacity:1;fill-rule:evenodd;stroke:none;stroke-width:0.853096;stroke-linecap:butt;stroke-linejoin:miter;stroke-miterlimit:4;stroke-dasharray:none;stroke-opacity:1"
       id="check"
       sodipodi:nodetypes="cccccccc" />
    <path
       d="m 3887.2493,10908.943 c -31.4632,-15.976 -53.4602,-44.565 -60.6134,-78.814 -3.8998,-18.734 -3.1149,-37.51 2.3967,-56.135 1.8656,-6.256 5.9159,-15.913 9.2146,-21.93 20.93,-38.182 62.2114,-61.251 105.6152,-59.031 17.6095,0.915 33.4923,5.41 49.1334,13.891 15.203,8.25 28.625,20.295 38.6422,34.733 l 1.9737,2.829 10.6147,-5.353 3.3953,-1.546 -1.2685,-2.905 c -0.7426,-1.7 -1.1634,-3.098 -1.0436,-3.404 44.4228,-23.326 114.0329,-63.769 114.9769,-63.78 0.7005,0.01 3.964,3.668 6.3478,7.098 6.352,9.184 12.7046,24.358 14.485,34.569 0.3275,1.86 0.359,2.754 0.1021,3.035 -48.7866,23.69 -65.7828,33.261 -117.241,60.045 -0.2291,-0.09 -1.1807,-1.931 -2.1598,-4.077 l -1.7427,-3.942 -2.8186,1.273 c -1.5432,0.716 -10.245,5.234 -10.4266,5.397 -0.2625,0.221 -0.2175,0.855 0.1977,2.192 2.2859,7.649 3.4144,13.082 4.5218,22.09 0.3535,2.692 0.6144,8.168 0.6062,12.157 -0.07,24.517 -8.3693,48.979 -23.2499,68.511 -13.6931,18.002 -32.9425,31.829 -54.2326,38.954 -22.8599,7.684 -45.8255,8.075 -69.4858,1.177 -3.5398,-1.006 -14.7523,-5.432 -17.9408,-7.034 z m 19.7566,-4.262 c 13.3321,4.111 25.3667,5.541 38.5826,4.557 29.4455,-2.166 56.5365,-16.823 74.2384,-40.182 3.5014,-4.587 5.6008,-7.845 8.7498,-13.48 2.2116,-3.919 7.8054,-17.962 8.7231,-21.8 1.2675,-5.404 1.4695,-6.294 1.9438,-8.927 2.7371,-15.368 1.9661,-30.849 -2.2683,-45.809 -7.0178,-24.859 -23.3121,-46.427 -45.0613,-59.622 -6.5038,-3.93 -7.6345,-4.491 -16.3885,-7.923 -8.5505,-3.352 -9.9391,-3.779 -16.7456,-5.215 -31.5868,-6.6 -65.01,2.492 -89.1896,24.25 -18.5595,16.71 -30.268,39.16 -33.2858,63.931 -2.8453,23.282 2.2779,46.459 14.6841,66.561 12.6682,20.556 33.3409,36.647 56.0173,43.659 z"
       id="path4"
       inkscape:connector-curvature="0"
       sodipodi:nodetypes="ccccccccccsccccccccccccccccccccccccccsccccc"
       style="fill:#767676;fill-opacity:1;stroke:#767676;stroke-width:10.2502;stroke-miterlimit:4;stroke-dasharray:none;stroke-opacity:1" />
    <path
       d="m 4017.8199,10867.179 c 0.6818,-0.303 1.0858,-0.303 0.6313,0 -0.202,0.127 -0.5556,0.228 -0.7576,0.228 -0.2525,0 -0.202,-0.08 0.1263,-0.228 z"
       id="path8"
       inkscape:connector-curvature="0"
       sodipodi:nodetypes="ccsc"
       style="stroke:#000000;stroke-width:0.0252522;stroke-opacity:1" />
    <path
       d="m 4019.335,10866.674 c 0.6818,-0.303 1.0859,-0.303 0.6313,0 -0.202,0.127 -0.5555,0.228 -0.7575,0.228 -0.2526,0 -0.2021,-0.08 0.1262,-0.228 z"
       id="path10"
       inkscape:connector-curvature="0"
       sodipodi:nodetypes="ccsc"
       style="stroke:#000000;stroke-width:0.0252522;stroke-opacity:1" />
    <path
       d="m 3928.326,10821.321 c 0,-0.277 0.076,-0.353 0.1515,-0.151 0.076,0.177 0.05,0.404 -0.025,0.48 -0.076,0.101 -0.1515,-0.05 -0.1263,-0.329 z"
       id="path12"
       inkscape:connector-curvature="0"
       sodipodi:nodetypes="cccc"
       style="stroke:#000000;stroke-width:0.0252522;stroke-opacity:1" />
    <path
       d="m 4004.2594,10760.943 c 0.3031,-0.05 0.8081,-0.05 1.1364,0 0.303,0.05 0.051,0.101 -0.5808,0.101 -0.6313,0 -0.8838,-0.05 -0.5556,-0.101 z"
       id="path34"
       inkscape:connector-curvature="0"
       sodipodi:nodetypes="ccsc"
       style="stroke:#000000;stroke-width:0.0252522;stroke-opacity:1" />
  </g>
</svg>
