<?xml version="1.0" encoding="UTF-8" standalone="no"?>
<svg
   version="1.0"
   width="1116pt"
   height="1116pt"
   viewBox="0 0 1116 1116.0002"
   preserveAspectRatio="xMidYMid meet"
   id="svg38"
   sodipodi:docname="logo-fraud.svg"
   inkscape:version="1.1.2 (0a00cf5339, 2022-02-04)"
   inkscape:export-filename="/home/tramm/Dokumendid/ausadvalimised/icon-1024.png"
   inkscape:export-xdpi="49.310001"
   inkscape:export-ydpi="49.310001"
   xmlns:inkscape="http://www.inkscape.org/namespaces/inkscape"
   xmlns:sodipodi="http://sodipodi.sourceforge.net/DTD/sodipodi-0.dtd"
   xmlns="http://www.w3.org/2000/svg"
   xmlns:svg="http://www.w3.org/2000/svg"
   xmlns:rdf="http://www.w3.org/1999/02/22-rdf-syntax-ns#"
   xmlns:cc="http://creativecommons.org/ns#"
   xmlns:dc="http://purl.org/dc/elements/1.1/">
  <defs
     id="defs42" />
  <sodipodi:namedview
     pagecolor="#f7f7f7"
     bordercolor="#666666"
     borderopacity="1"
     objecttolerance="10"
     gridtolerance="10"
     guidetolerance="10"
     inkscape:pageopacity="1"
     inkscape:pageshadow="2"
     inkscape:window-width="1920"
     inkscape:window-height="1009"
     id="namedview40"
     showgrid="false"
     fit-margin-top="120"
     fit-margin-left="20"
     fit-margin-right="20"
     fit-margin-bottom="80"
     inkscape:zoom="0.2765625"
     inkscape:cx="759.32203"
     inkscape:cy="576.72316"
     inkscape:window-x="0"
     inkscape:window-y="0"
     inkscape:window-maximized="1"
     inkscape:current-layer="g36"
     units="pt"
     inkscape:pagecheckerboard="0"
     inkscape:document-units="pt"
     scale-x="1"
     width="1116pt" />
  <metadata
     id="metadata2">
Created by potrace 1.15, written by Peter Selinger 2001-2017
<rdf:RDF>
  <cc:Work
     rdf:about="">
    <dc:format>image/svg+xml</dc:format>
    <dc:type
       rdf:resource="http://purl.org/dc/dcmitype/StillImage" />
  </cc:Work>
</rdf:RDF>
</metadata>
  <g
     transform="matrix(0.1,0,0,-0.1,266.36508,1586.2394)"
     id="g36"
     style="fill:#000000;stroke:none">
    <path
       id="check"
       style="fill:#ff5555;fill-opacity:1;fill-rule:evenodd;stroke:none;stroke-width:24.9512;stroke-linecap:butt;stroke-linejoin:miter;stroke-miterlimit:4;stroke-dasharray:none;stroke-opacity:1"
       d="m 3755.4657,11406.961 -898.8974,988.63 C 2065.1187,11438.032 1356.9085,10428.667 1125.6874,10031.363 568.22492,9942.169 101.05252,11056.808 101.05252,11056.808 l -1371.70452,-730.48 c 0,0 1270.38572373,-1751.5835 1491.23172,-2437.5811 l 1314.56998,-8.4168 c 366.6981,832.393 1222.6458,2234.9459 2220.316,3526.6309 z"
       inkscape:export-filename="/home/tramm/Dokumendid/ausadvalimised/check.png"
       inkscape:export-xdpi="49.310001"
       inkscape:export-ydpi="49.310001" />
    <path
       id="path2496"
       style="fill:#03dc03;fill-opacity:1;fill-rule:evenodd;stroke:none;stroke-width:24.9512;stroke-linecap:butt;stroke-linejoin:miter;stroke-miterlimit:4;stroke-dasharray:none;stroke-opacity:1"
       d="m 5679.9178,14542.394 c -181.2616,0.07 -376.6404,-25.989 -564.2914,-83.793 -569.4023,-175.403 -1456.9969,-1092.612 -2259.0581,-2063.01 l 898.8974,-988.63 c 826.2777,1069.783 1748.1489,2065.001 2584.3824,2583.95 300.54,316.389 -116.1446,551.329 -659.9303,551.483 z"
       inkscape:export-filename="/home/tramm/Dokumendid/ausadvalimised/check.png"
       inkscape:export-xdpi="49.310001"
       inkscape:export-ydpi="49.310001" />
    <path
       d="m -469.99804,12878.445 c -920.22736,-467.271 -1563.58686,-1303.426 -1772.80286,-2305.123 -114.0608,-547.917 -91.1038,-1097.0703 70.0975,-1641.8295 54.5656,-182.9773 173.0285,-465.414 269.5067,-641.4042 612.1546,-1116.7399 1819.537824,-1791.4457 3089.0004,-1726.5146 515.0351,26.754 979.5701,158.2202 1437.0365,406.274 444.6525,241.3128 837.2152,593.5837 1130.1969,1015.8674 l 57.7238,82.7404 310.4574,-156.5556 99.3054,-45.2182 -37.1034,-84.9604 c -21.7187,-49.733 -34.0244,-90.6228 -30.5226,-99.5544 1299.2641,-682.2329 3335.1981,-1865.1027 3362.8092,-1865.4404 20.4885,0.3051 115.9382,107.2824 185.6595,207.6072 185.7801,268.6225 371.5779,712.4248 423.653,1011.0621 9.5798,54.4181 10.4999,80.5403 2.9846,88.7573 -1426.896,692.8974 -1923.9951,972.8315 -3429.0282,1756.1843 -6.6987,-2.6264 -34.5327,-56.4743 -63.1698,-119.2241 l -50.9694,-115.2992 -82.4356,37.2346 c -45.1361,20.945 -299.6441,153.0667 -304.9558,157.854 -7.6759,6.4362 -6.3608,24.9844 5.784,64.0939 66.8551,223.7128 99.8631,382.6336 132.2519,646.0711 10.3382,78.762 17.9687,238.895 17.7293,355.5833 -2.0613,717.066 -244.7832,1432.517 -680.0045,2003.795 -400.4921,526.508 -963.4921,930.907 -1586.1796,1139.305 -668.5974,224.746 -1340.29058,236.183 -2032.299476,34.423 -103.5289,-29.427 -431.468864,-158.86 -524.724954,-205.729 z m 577.83396,-124.657 c 389.9322,120.248 741.9159,162.077 1128.45098,133.298 861.2145,-63.36 1653.5636,-492.046 2171.3024,-1175.235 102.4069,-134.164 163.8086,-229.452 255.9103,-394.279 64.6838,-114.607 228.289,-525.324 255.1324,-637.593 37.0704,-158.064 42.9784,-184.085 56.8508,-261.082 80.0546,-449.484 57.5021,-902.2743 -66.3426,-1339.8211 -205.2549,-727.0755 -681.8243,-1357.871 -1317.9398,-1743.8052 -190.2201,-114.9381 -223.2905,-131.3386 -479.3261,-231.7219 -250.0815,-98.049 -290.6961,-110.5381 -489.7688,-152.5226 -923.84028,-193.0445 -1901.39326,72.8655 -2608.58816,709.2539 -542.82494,488.7333 -885.26904,1145.3346 -973.53284,1869.8216 -83.2184,680.9533 66.621,1358.8223 429.4749,1946.7513 370.5162,601.236 975.14558,1071.858 1638.37652,1276.935 z"
       id="path4"
       inkscape:connector-curvature="0"
       sodipodi:nodetypes="ccccccccccsccccccccccccccccccccccccccsccccc"
       style="fill:#767676;fill-opacity:1;stroke:#767676;stroke-width:299.792;stroke-miterlimit:4;stroke-dasharray:none;stroke-opacity:1"
       inkscape:export-filename="/home/tramm/Dokumendid/ausadvalimised/check.png"
       inkscape:export-xdpi="49.310001"
       inkscape:export-ydpi="49.310001" />
    <path
       d="m 3348.8883,11656.956 c 19.9415,-8.865 31.7584,-8.865 18.4643,0 -5.9087,3.694 -16.2485,6.649 -22.1572,6.649 -7.3854,0 -5.9083,-2.216 3.6929,-6.649 z"
       id="path8"
       inkscape:connector-curvature="0"
       sodipodi:nodetypes="ccsc"
       style="stroke:#000000;stroke-width:0.73857;stroke-opacity:1"
       inkscape:export-filename="/home/tramm/Dokumendid/ausadvalimised/check.png"
       inkscape:export-xdpi="49.310001"
       inkscape:export-ydpi="49.310001" />
    <path
       d="m 3393.2025,11642.184 c 19.9414,-8.862 31.7585,-8.862 18.4642,0 -5.9086,3.693 -16.2485,6.648 -22.1571,6.648 -7.3855,0 -5.9085,-2.217 3.6929,-6.648 z"
       id="path10"
       inkscape:connector-curvature="0"
       sodipodi:nodetypes="ccsc"
       style="stroke:#000000;stroke-width:0.73857;stroke-opacity:1"
       inkscape:export-filename="/home/tramm/Dokumendid/ausadvalimised/check.png"
       inkscape:export-xdpi="49.310001"
       inkscape:export-ydpi="49.310001" />
    <path
       d="m 731.39962,10315.715 c 0,-8.124 2.2157,-10.339 4.4313,-4.432 2.2157,5.169 1.4771,11.819 -0.7387,14.034 -2.2157,2.951 -4.4312,-1.48 -3.6926,-9.602 z"
       id="path12"
       inkscape:connector-curvature="0"
       sodipodi:nodetypes="cccc"
       style="stroke:#000000;stroke-width:0.73857;stroke-opacity:1"
       inkscape:export-filename="/home/tramm/Dokumendid/ausadvalimised/check.png"
       inkscape:export-xdpi="49.310001"
       inkscape:export-ydpi="49.310001" />
    <path
       d="m 2952.2768,8549.7957 c 8.8629,-1.4772 23.6343,-1.4772 33.2357,0 8.8625,1.4772 1.477,2.9543 -16.9874,2.9543 -18.4641,0 -25.8497,-1.4771 -16.2483,-2.9543 z"
       id="path34"
       inkscape:connector-curvature="0"
       sodipodi:nodetypes="ccsc"
       style="stroke:#000000;stroke-width:0.73857;stroke-opacity:1"
       inkscape:export-filename="/home/tramm/Dokumendid/ausadvalimised/check.png"
       inkscape:export-xdpi="49.310001"
       inkscape:export-ydpi="49.310001" />
  </g>
</svg>
