<?xml version="1.0" encoding="UTF-8" standalone="no"?>
<svg
   version="1.0"
   width="1495.3173pt"
   height="1495.3173pt"
   viewBox="0 0 1495.3173 1495.3173"
   preserveAspectRatio="xMidYMid meet"
   id="svg38"
   sodipodi:docname="logo.svg"
   inkscape:version="1.1.2 (0a00cf5339, 2022-02-04)"
   inkscape:export-filename="/home/tramm/Kood/ausadvalimised.ee/media/logo.png"
   inkscape:export-xdpi="49.310001"
   inkscape:export-ydpi="49.310001"
   xmlns:inkscape="http://www.inkscape.org/namespaces/inkscape"
   xmlns:sodipodi="http://sodipodi.sourceforge.net/DTD/sodipodi-0.dtd"
   xmlns="http://www.w3.org/2000/svg"
   xmlns:svg="http://www.w3.org/2000/svg"
   xmlns:rdf="http://www.w3.org/1999/02/22-rdf-syntax-ns#"
   xmlns:cc="http://creativecommons.org/ns#"
   xmlns:dc="http://purl.org/dc/elements/1.1/">
  <defs
     id="defs42" />
  <sodipodi:namedview
     pagecolor="#ffffff"
     bordercolor="#666666"
     borderopacity="1"
     objecttolerance="10"
     gridtolerance="10"
     guidetolerance="10"
     inkscape:pageopacity="0"
     inkscape:pageshadow="2"
     inkscape:window-width="1920"
     inkscape:window-height="1009"
     id="namedview40"
     showgrid="false"
     fit-margin-top="30"
     fit-margin-left="20"
     fit-margin-right="20"
     fit-margin-bottom="30"
     inkscape:zoom="0.2765625"
     inkscape:cx="1475.2542"
     inkscape:cy="858.75706"
     inkscape:window-x="0"
     inkscape:window-y="0"
     inkscape:window-maximized="1"
     inkscape:current-layer="g36"
     units="pt"
     inkscape:pagecheckerboard="0"
     inkscape:document-units="pt" />
  <metadata
     id="metadata2">
Created by potrace 1.15, written by Peter Selinger 2001-2017
<rdf:RDF>
  <cc:Work
     rdf:about="">
    <dc:format>image/svg+xml</dc:format>
    <dc:type
       rdf:resource="http://purl.org/dc/dcmitype/StillImage" />
  </cc:Work>
</rdf:RDF>
</metadata>
  <g
     transform="matrix(0.1,0,0,-0.1,354.50018,1845.2706)"
     id="g36"
     style="fill:#000000;stroke:none">
    <path
       inkscape:connector-curvature="0"
       d="m -1654.7105,11113.376 c 0,0 1720.060409,-2371.5949 2019.07893,-3300.4152 l 1779.88967,-11.396 c 907.7017,2060.4532 4006.0835,6722.5132 6505.4089,8273.5412 542.5626,571.174 -641.2651,946.302 -1657.5604,633.242 C 5460.3996,16236.512 2220.1898,11797.089 1589.859,10714.002 835.072,10593.236 202.53551,12102.423 202.53551,12102.423 Z"
       style="fill:#90ee90;fill-opacity:1;fill-rule:evenodd;stroke:none;stroke-width:33.7830162;stroke-linecap:butt;stroke-linejoin:miter;stroke-miterlimit:4;stroke-dasharray:none;stroke-opacity:1"
       id="check"
       sodipodi:nodetypes="cccccccc" />
    <path
       d="m -570.65552,14568.858 c -1245.95968,-632.669 -2117.04888,-1764.799 -2400.32078,-3121.065 -154.435,-741.864 -123.3519,-1485.402 94.9098,-2222.9872 73.8802,-247.7457 234.2752,-630.1563 364.9039,-868.4417 828.8384,-1512.0318 2463.59852,-2425.5626 4182.4121,-2337.6482 697.3416,36.2242 1326.308,214.2254 1945.7033,550.0829 602.0462,326.7299 1133.5639,803.6942 1530.2524,1375.4531 l 78.1562,112.0283 420.3499,-211.9716 134.4563,-61.2241 -50.2368,-115.0338 c -29.4064,-67.3368 -46.0678,-122.7005 -41.3266,-134.7934 1759.1638,-923.7226 4515.7568,-2525.2921 4553.1408,-2525.7495 27.741,0.4132 156.977,145.2572 251.377,281.0941 251.542,363.7064 503.105,964.6011 573.613,1368.9471 12.969,73.6802 14.217,109.0489 4.041,120.1744 -1931.973,938.1621 -2605.0299,1317.1842 -4642.7989,2377.8197 -9.0698,-3.556 -46.7562,-76.4641 -85.53,-161.4255 l -69.0108,-156.1116 -111.6154,50.4144 c -61.1128,28.359 -405.709,207.2477 -412.9007,213.7293 -10.3926,8.7146 -8.6125,33.8282 7.8312,86.7814 90.5199,302.9005 135.2119,518.0741 179.0651,874.7619 13.9977,106.639 24.3287,323.455 24.0048,481.45 -2.7909,970.882 -331.4291,1939.58 -920.7052,2713.075 -542.2543,712.874 -1304.5388,1260.419 -2147.6388,1542.585 -905.2605,304.3 -1814.7125,319.783 -2751.6713,46.607 -140.17507061,-39.846 -584.19571,-215.095 -710.46162,-278.552 z m 782.36951,-168.783 c 527.95639,162.814 1004.53171,219.449 1527.88811,180.481 1166.0581,-85.784 2238.8748,-666.213 2939.8773,-1591.23 138.6557,-181.657 221.7918,-310.67 346.4947,-533.839 87.5801,-155.177 309.0962,-711.275 345.4415,-863.285 50.1921,-214.013 58.1913,-249.245 76.9743,-353.496 108.3915,-608.588 77.8561,-1221.652 -89.8261,-1814.077 -277.9087,-984.4377 -923.169,-1838.5156 -1784.4501,-2361.0585 -257.5523,-155.6229 -302.3283,-177.8286 -648.993,-313.7447 -338.6025,-132.7554 -393.5934,-149.665 -663.132,-206.511 -1250.8516,-261.3763 -2574.42831,98.658 -3531.9486,960.3083 -734.9686,661.7302 -1198.627,1550.7482 -1318.1338,2531.6799 -112.6751,921.989 90.2031,1839.805 581.4959,2635.843 501.6676,814.054 1320.31739,1451.263 2218.31179,1728.929 z"
       id="path4"
       inkscape:connector-curvature="0"
       sodipodi:nodetypes="ccccccccccsccccccccccccccccccccccccccsccccc"
       style="fill:#767676;fill-opacity:1;stroke:#767676;stroke-width:405.91204834;stroke-miterlimit:4;stroke-dasharray:none;stroke-opacity:1" />
    <path
       d="m 4600,12915 c 27,-12 43,-12 25,0 -8,5 -22,9 -30,9 -10,0 -8,-3 5,-9 z"
       id="path8"
       inkscape:connector-curvature="0"
       sodipodi:nodetypes="ccsc"
       style="stroke:#000000;stroke-opacity:1" />
    <path
       d="m 4660,12895 c 27,-12 43,-12 25,0 -8,5 -22,9 -30,9 -10,0 -8,-3 5,-9 z"
       id="path10"
       inkscape:connector-curvature="0"
       sodipodi:nodetypes="ccsc"
       style="stroke:#000000;stroke-opacity:1" />
    <path
       d="m 1056,11099 c 0,-11 3,-14 6,-6 3,7 2,16 -1,19 -3,4 -6,-2 -5,-13 z"
       id="path12"
       inkscape:connector-curvature="0"
       sodipodi:nodetypes="cccc"
       style="stroke:#000000;stroke-opacity:1" />
    <path
       d="m 4063,8708 c 12,-2 32,-2 45,0 12,2 2,4 -23,4 -25,0 -35,-2 -22,-4 z"
       id="path34"
       inkscape:connector-curvature="0"
       sodipodi:nodetypes="ccsc"
       style="stroke:#000000;stroke-opacity:1" />
  </g>
</svg>
